<svg version="1.1" id="Layer_1" xmlns="http://www.w3.org/2000/svg" xmlns:xlink="http://www.w3.org/1999/xlink" x="0px" y="0px"
	 width="100%" viewBox="0 0 208 224" enable-background="new 0 0 208 224" xml:space="preserve">
<path fill="#000000" opacity="1.000000" stroke="none" 
	d="
M95.468658,225.000000 
	C91.330101,222.325958 88.096100,219.270081 86.650818,214.802521 
	C85.731689,211.961365 83.426048,212.355789 81.307220,212.350113 
	C70.980904,212.322464 60.654446,212.344742 50.328114,212.318863 
	C48.532700,212.314362 46.737652,212.163605 44.563381,212.062836 
	C44.547009,206.976303 45.011749,202.198883 42.813240,196.673126 
	C57.867256,196.673126 71.869568,196.673126 85.871887,196.673126 
	C86.178986,196.081848 86.486084,195.490570 86.793182,194.899292 
	C69.065941,177.161835 51.338699,159.424377 33.660530,141.736023 
	C45.006546,128.384766 45.006546,128.384766 44.119595,114.819016 
	C45.303196,113.243813 47.085697,113.683853 48.667667,113.678062 
	C59.160442,113.639694 69.654572,113.756020 80.145866,113.627213 
	C84.741638,113.570793 86.970703,115.081726 86.456772,120.090462 
	C86.141518,123.162766 86.721153,126.326904 86.950157,130.349579 
	C73.786652,130.349579 60.782993,130.349579 46.671886,130.349579 
	C65.324158,148.551514 82.951035,165.752792 100.656395,183.030670 
	C100.656395,170.238190 100.656395,156.872818 100.656395,143.285019 
	C104.955612,143.161743 108.536674,143.742188 112.162956,143.460358 
	C115.641693,143.190018 116.333672,146.052567 116.332420,148.985352 
	C116.328232,158.812073 116.342209,168.638779 116.348824,178.465500 
	C116.349922,180.103806 116.348984,181.742096 116.348984,184.493073 
	C121.749031,180.756516 125.330055,176.434525 129.197952,172.553635 
	C136.876297,164.849487 135.724579,165.031387 143.254730,172.572571 
	C144.639603,173.959488 145.916214,175.454498 147.332092,176.996887 
	C142.265579,183.983047 135.072861,188.572891 130.471207,195.397049 
	C132.181854,197.230576 133.954391,196.619934 135.529633,196.631256 
	C144.523148,196.696014 153.517395,196.646332 162.511246,196.677567 
	C169.059601,196.700317 170.828308,198.397263 170.959946,204.789963 
	C171.006943,207.073029 171.842453,209.363327 170.792938,212.335037 
	C163.524872,212.335037 156.081329,212.335037 148.637787,212.335052 
	C147.971573,212.335052 147.278427,212.457397 146.643143,212.317276 
	C135.277206,209.810181 127.493782,214.518539 122.121765,224.685638 
	C113.312439,225.000000 104.624870,225.000000 95.468658,225.000000 
z"/>
<path fill="#000000" opacity="1.000000" stroke="none" 
	d="
M81.492088,75.524521 
	C80.031250,76.877907 79.127190,78.365868 77.203461,78.965401 
	C73.579002,76.683884 70.903107,73.254005 67.898682,70.201408 
	C65.958755,68.230370 67.171257,66.678246 68.746460,65.133293 
	C73.502106,60.468964 78.212769,55.758121 82.894623,51.019619 
	C84.125519,49.773834 85.930534,48.784485 85.321609,45.624638 
	C72.010063,45.624638 58.511635,45.624638 44.360390,45.624638 
	C44.825745,39.988037 44.650272,35.260891 43.542900,30.850542 
	C45.449997,29.133938 47.368732,29.716347 49.121658,29.706366 
	C59.946613,29.644714 70.773422,29.571609 81.596489,29.724184 
	C84.753571,29.768688 87.024811,28.943451 88.627007,26.139170 
	C96.401047,12.532434 119.678230,12.814068 127.278374,26.228388 
	C128.872787,29.042564 131.187332,29.782516 134.333557,29.732641 
	C144.823029,29.566357 155.317062,29.651855 165.808990,29.707144 
	C167.748749,29.717365 169.814621,29.211027 171.729401,30.646601 
	C171.764282,34.685005 170.419800,38.673866 171.038437,42.892185 
	C171.486328,45.946270 168.477188,45.288078 166.655884,45.301250 
	C156.497314,45.374737 146.337906,45.326683 136.178970,45.367153 
	C134.416153,45.374176 132.546127,44.960995 130.975586,45.966362 
	C130.617981,48.302864 132.419861,49.047409 133.514099,50.151623 
	C148.752640,65.529015 164.028381,80.869553 179.292038,96.222069 
	C183.692764,100.648407 183.665329,100.831306 178.878128,104.966347 
	C177.747787,105.942703 176.694672,107.020737 175.693466,108.130836 
	C174.709244,109.222130 173.836151,110.413651 173.010040,111.441994 
	C170.611938,111.368721 169.594406,109.700478 168.336487,108.443619 
	C153.020920,93.140930 137.736954,77.806564 122.389450,62.536037 
	C121.082024,61.235172 120.064636,58.890465 117.552155,59.856236 
	C114.929390,60.864403 115.361565,63.295536 115.357872,65.428329 
	C115.340584,75.420868 115.369835,85.413551 115.325981,95.405930 
	C115.318153,97.190155 115.745110,99.089882 114.207489,101.054771 
	C109.869484,99.933197 105.277565,100.145920 100.943443,101.183868 
	C99.105972,98.921509 99.696144,96.672745 99.682091,94.584213 
	C99.615959,84.758629 99.673180,74.932266 99.627960,65.106438 
	C99.620674,63.524780 100.204903,61.495468 98.210594,60.710533 
	C96.229851,59.930943 95.254662,61.840561 94.130966,62.933414 
	C89.952820,66.996910 85.863297,71.151520 81.492088,75.524521 
z"/>
<path fill="#000000" opacity="1.000000" stroke="none" 
	d="
M144.004517,130.357437 
	C139.679871,130.335037 135.854187,130.325912 132.028900,130.282333 
	C130.180054,130.261276 128.370071,129.701782 128.955002,127.471954 
	C130.078064,123.190651 129.463669,118.952881 128.770309,114.175880 
	C143.072693,114.175880 156.906708,114.175880 171.186996,114.175880 
	C171.344315,119.356010 170.762695,124.445663 171.749252,130.356552 
	C162.299164,130.356552 153.401398,130.356552 144.004517,130.357437 
z"/>
<path fill="#000000" opacity="1.000000" stroke="none" 
	d="
M166.993088,157.999817 
	C164.656128,159.663696 163.241226,163.778610 160.616135,162.286560 
	C156.671356,160.044373 153.299118,156.573074 150.983475,152.428314 
	C150.758286,152.025253 151.067459,151.023148 151.459076,150.620743 
	C158.030090,143.868927 164.653687,137.168274 171.651611,130.064407 
	C175.102310,134.708206 177.936798,138.786728 183.264404,141.693756 
	C177.495895,147.475128 172.369705,152.612762 166.993088,157.999817 
z"/>
<path fill="#000000" opacity="1.000000" stroke="none" 
	d="
M12.471066,199.813705 
	C17.108969,193.983673 22.163553,192.467865 27.970236,194.881470 
	C32.512856,196.769653 35.622810,202.021271 35.109921,206.937927 
	C34.547054,212.333664 30.453352,216.736389 24.970940,217.842270 
	C15.468399,219.759033 8.861280,210.550720 12.471066,199.813705 
z"/>
<path fill="#000000" opacity="1.000000" stroke="none" 
	d="
M119.740929,121.936600 
	C118.129639,130.753281 113.215767,134.641144 105.621826,133.492126 
	C99.311119,132.537262 95.128860,127.098625 95.726578,120.624298 
	C96.277031,114.661926 101.452080,109.844131 107.447289,109.712715 
	C114.119164,109.566460 118.383759,113.670425 119.740929,121.936600 
z"/>
<path fill="#000000" opacity="1.000000" stroke="none" 
	d="
M41.738327,111.026825 
	C39.776218,106.773689 35.778137,104.905113 32.411888,101.355499 
	C38.508579,95.303574 44.456902,89.366745 50.454033,83.479637 
	C51.380188,82.570480 52.741829,82.458473 53.662666,83.321304 
	C56.690880,86.158760 59.674938,89.056664 62.485481,92.106850 
	C63.687546,93.411423 62.406738,94.563194 61.477642,95.507164 
	C56.341682,100.725349 51.189098,105.927193 46.036812,111.129288 
	C44.732769,112.445946 43.388279,113.296150 41.738327,111.026825 
z"/>
<path fill="#000000" opacity="1.000000" stroke="none" 
	d="
M34.629021,41.185879 
	C33.967327,43.161705 33.241127,44.601326 31.135637,45.257965 
	C29.314125,42.936771 29.041609,39.292721 25.704718,38.113075 
	C22.853279,37.105045 19.991671,36.175411 17.094219,37.801052 
	C15.648438,38.612225 14.277246,39.973991 12.808925,38.057674 
	C11.566567,36.436264 11.836989,34.670025 12.727274,32.918591 
	C15.913263,26.650881 25.227083,24.958946 30.683495,29.781612 
	C33.969791,32.686218 35.680035,36.305035 34.629021,41.185879 
z"/>
<path fill="#000000" opacity="1.000000" stroke="none" 
	d="
M201.573730,201.431885 
	C195.437347,199.351761 192.093704,201.194412 187.857407,208.812714 
	C187.002563,210.350021 186.977112,212.437210 185.046555,213.296432 
	C180.609528,210.083023 179.664185,205.632156 182.266205,200.325302 
	C184.565704,195.635452 190.539215,192.705215 195.193665,194.617233 
	C198.136871,195.826279 202.685699,196.129578 201.573730,201.431885 
z"/>
<path fill="#000000" opacity="1.000000" stroke="none" 
	d="
M188.961121,122.854691 
	C185.024063,126.344063 190.788071,129.099060 189.237579,132.193527 
	C183.688965,132.386948 180.402328,128.095718 180.683090,121.098526 
	C180.960907,114.175163 186.238693,109.887390 193.406830,110.761528 
	C190.034256,113.796883 190.034256,113.796883 188.961121,122.854691 
z"/>
<path fill="#000000" opacity="1.000000" stroke="none" 
	d="
M185.481781,40.604454 
	C184.840302,42.255898 184.846359,43.924309 183.123642,44.414948 
	C177.884537,40.686596 181.288589,30.377783 186.846954,28.399712 
	C188.756256,27.720247 190.029404,28.518541 191.217850,29.822515 
	C192.720505,31.471256 192.218719,33.151936 191.356598,34.878170 
	C190.103561,37.387112 187.091537,38.007778 185.481781,40.604454 
z"/>
<path fill="#000000" opacity="1.000000" stroke="none" 
	d="
M32.413872,115.680313 
	C35.841194,121.010895 35.820427,124.899986 32.604012,129.094589 
	C30.040703,132.437469 27.552404,133.334915 23.855148,132.247772 
	C23.566000,131.315552 24.001461,130.510681 24.651842,130.050598 
	C29.357187,126.722015 31.834534,122.369957 31.240328,116.472275 
	C31.212528,116.196342 31.833817,115.855011 32.413872,115.680313 
z"/>
</svg>